{
  "accessors": [
    {
      "bufferView": 2,
      "componentType": 5126,
      "count": 2142,
      "max": [
        0.6130079030990601,
        0.14334800839424133,
        0.5656841993331909
      ],
      "min": [
        -0.3150840997695923,
        -0.1321316361427307,
        -0.9189890027046204
      ],
      "type": "VEC3"
    },
    {
      "bufferView": 2,
      "byteOffset": 25704,
      "componentType": 5126,
      "count": 2142,
      "max": [
        1.0,
        1.0,
        1.0
      ],
      "min": [
        -1.0,
        -1.0,
        -1.0
      ],
      "type": "VEC3"
    },
    {
      "bufferView": 1,
      "componentType": 5126,
      "count": 2142,
      "max": [
        67.06307220458984,
        67.06307220458984
      ],
      "min": [
        -66.06307220458984,
        -66.06307220458984
      ],
      "type": "VEC2"
    },
    {
      "bufferView": 0,
      "componentType": 5125,
      "count": 3891,
      "type": "SCALAR"
    },
    {
      "bufferView": 2,
      "byteOffset": 51408,
      "componentType": 5126,
      "count": 6,
      "max": [
        0.6450828313827515,
        0.0,
        0.5841904878616333
      ],
      "min": [
        -0.3861578702926636,
        0.0,
        -1.0
      ],
      "type": "VEC3"
    },
    {
      "bufferView": 2,
      "byteOffset": 51480,
      "componentType": 5126,
      "count": 6,
      "max": [
        0.0,
        1.0,
        -0.0
      ],
      "min": [
        0.0,
        1.0,
        -0.0
      ],
      "type": "VEC3"
    },
    {
      "bufferView": 1,
      "byteOffset": 17136,
      "componentType": 5126,
      "count": 6,
      "max": [
        1.0,
        1.0
      ],
      "min": [
        0.0,
        0.0
      ],
      "type": "VEC2"
    },
    {
      "bufferView": 0,
      "byteOffset": 15564,
      "componentType": 5125,
      "count": 12,
      "type": "SCALAR"
    },
    {
      "bufferView": 2,
      "byteOffset": 51552,
      "componentType": 5126,
      "count": 246,
      "max": [
        0.6130079030990601,
        0.0032795041333884,
        0.027504093945026398
      ],
      "min": [
        0.14898289740085602,
        -0.009628672152757645,
        -0.4874346852302551
      ],
      "type": "VEC3"
    },
    {
      "bufferView": 2,
      "byteOffset": 54504,
      "componentType": 5126,
      "count": 246,
      "max": [
        1.0,
        0.0017747716046869755,
        1.0
      ],
      "min": [
        -1.0,
        -0.0017752782441675663,
        -1.0
      ],
      "type": "VEC3"
    },
    {
      "bufferView": 1,
      "byteOffset": 17184,
      "componentType": 5126,
      "count": 246,
      "max": [
        0.7124999761581421,
        1.0
      ],
      "min": [
        0.125,
        0.0
      ],
      "type": "VEC2"
    },
    {
      "bufferView": 0,
      "byteOffset": 15612,
      "componentType": 5125,
      "count": 372,
      "type": "SCALAR"
    },
    {
      "bufferView": 2,
      "byteOffset": 57456,
      "componentType": 5126,
      "count": 192,
      "max": [
        0.40366044640541077,
        0.1337849348783493,
        -0.4294228255748749
      ],
      "min": [
        0.2182234674692154,
        0.04940890148282051,
        -0.9123084545135498
      ],
      "type": "VEC3"
    },
    {
      "bufferView": 2,
      "byteOffset": 59760,
      "componentType": 5126,
      "count": 192,
      "max": [
        1.0,
        1.0,
        1.0
      ],
      "min": [
        -1.0,
        -1.0,
        -1.0
      ],
      "type": "VEC3"
    },
    {
      "bufferView": 1,
      "byteOffset": 19152,
      "componentType": 5126,
      "count": 192,
      "max": [
        0.875,
        1.0
      ],
      "min": [
        0.125,
        0.0
      ],
      "type": "VEC2"
    },
    {
      "bufferView": 0,
      "byteOffset": 17100,
      "componentType": 5125,
      "count": 288,
      "type": "SCALAR"
    },
    {
      "bufferView": 2,
      "byteOffset": 62064,
      "componentType": 5126,
      "count": 36,
      "max": [
        0.6119764447212219,
        0.1256955862045288,
        0.2988370656967163
      ],
      "min": [
        -0.40151530504226685,
        0.061476461589336395,
        -0.8260200023651123
      ],
      "type": "VEC3"
    },
    {
      "bufferView": 2,
      "byteOffset": 62496,
      "componentType": 5126,
      "count": 36,
      "max": [
        0.0,
        1.0,
        -0.0
      ],
      "min": [
        -4.595980129806776e-08,
        -1.0,
        -0.0
      ],
      "type": "VEC3"
    },
    {
      "bufferView": 1,
      "byteOffset": 20688,
      "componentType": 5126,
      "count": 36,
      "max": [
        2.6316752433776855,
        4.83067512512207
      ],
      "min": [
        -2.3243255615234375,
        -3.8306751251220703
      ],
      "type": "VEC2"
    },
    {
      "bufferView": 0,
      "byteOffset": 18252,
      "componentType": 5125,
      "count": 60,
      "type": "SCALAR"
    },
    {
      "bufferView": 2,
      "byteOffset": 62928,
      "componentType": 5126,
      "count": 72,
      "max": [
        0.11076526343822479,
        0.07929510623216629,
        0.5726102590560913
      ],
      "min": [
        -0.3743574619293213,
        0.05536412447690964,
        -0.4008820354938507
      ],
      "type": "VEC3"
    },
    {
      "bufferView": 2,
      "byteOffset": 63792,
      "componentType": 5126,
      "count": 72,
      "max": [
        1.0,
        1.0,
        1.0
      ],
      "min": [
        -1.0,
        -1.0,
        -1.0
      ],
      "type": "VEC3"
    },
    {
      "bufferView": 1,
      "byteOffset": 20976,
      "componentType": 5126,
      "count": 72,
      "max": [
        0.875,
        1.0
      ],
      "min": [
        0.125,
        0.0
      ],
      "type": "VEC2"
    },
    {
      "bufferView": 0,
      "byteOffset": 18492,
      "componentType": 5125,
      "count": 108,
      "type": "SCALAR"
    },
    {
      "bufferView": 2,
      "byteOffset": 64656,
      "componentType": 5126,
      "count": 4,
      "max": [
        0.15146827697753906,
        0.061476461589336395,
        -0.15289849042892456
      ],
      "min": [
        -0.06591308116912842,
        0.061476461589336395,
        -0.20173132419586182
      ],
      "type": "VEC3"
    },
    {
      "bufferView": 2,
      "byteOffset": 64704,
      "componentType": 5126,
      "count": 4,
      "max": [
        0.0,
        1.0,
        -0.0
      ],
      "min": [
        0.0,
        1.0,
        -0.0
      ],
      "type": "VEC3"
    },
    {
      "bufferView": 1,
      "byteOffset": 21552,
      "componentType": 5126,
      "count": 4,
      "max": [
        0.6441083550453186,
        2.678248882293701
      ],
      "min": [
        -0.3674142062664032,
        -1.8363568782806396
      ],
      "type": "VEC2"
    },
    {
      "bufferView": 0,
      "byteOffset": 18924,
      "componentType": 5125,
      "count": 6,
      "type": "SCALAR"
    },
    {
      "bufferView": 2,
      "byteOffset": 64752,
      "componentType": 5126,
      "count": 2142,
      "max": [
        0.6130079030990601,
        0.14334800839424133,
        0.5656841993331909
      ],
      "min": [
        -0.3150840997695923,
        -0.1321316361427307,
        -0.9189890027046204
      ],
      "type": "VEC3"
    },
    {
      "bufferView": 2,
      "byteOffset": 90456,
      "componentType": 5126,
      "count": 2142,
      "max": [
        1.0,
        1.0,
        1.0
      ],
      "min": [
        -1.0,
        -1.0,
        -1.0
      ],
      "type": "VEC3"
    },
    {
      "bufferView": 1,
      "byteOffset": 21584,
      "componentType": 5126,
      "count": 2142,
      "max": [
        67.06307220458984,
        67.06307220458984
      ],
      "min": [
        -66.06307220458984,
        -66.06307220458984
      ],
      "type": "VEC2"
    },
    {
      "bufferView": 0,
      "byteOffset": 18948,
      "componentType": 5125,
      "count": 3891,
      "type": "SCALAR"
    },
    {
      "bufferView": 2,
      "byteOffset": 116160,
      "componentType": 5126,
      "count": 6,
      "max": [
        1.0,
        0.0,
        1.0
      ],
      "min": [
        -1.0,
        0.0,
        -1.0
      ],
      "type": "VEC3"
    },
    {
      "bufferView": 2,
      "byteOffset": 116232,
      "componentType": 5126,
      "count": 6,
      "max": [
        0.0,
        1.0,
        -0.0
      ],
      "min": [
        0.0,
        1.0,
        -0.0
      ],
      "type": "VEC3"
    },
    {
      "bufferView": 1,
      "byteOffset": 38720,
      "componentType": 5126,
      "count": 6,
      "max": [
        1.0,
        1.0
      ],
      "min": [
        0.0,
        0.0
      ],
      "type": "VEC2"
    },
    {
      "bufferView": 0,
      "byteOffset": 34512,
      "componentType": 5125,
      "count": 12,
      "type": "SCALAR"
    },
    {
      "bufferView": 2,
      "byteOffset": 116304,
      "componentType": 5126,
      "count": 246,
      "max": [
        0.6130079030990601,
        0.0032795041333884,
        0.027504093945026398
      ],
      "min": [
        0.14898289740085602,
        -0.009628672152757645,
        -0.4874346852302551
      ],
      "type": "VEC3"
    },
    {
      "bufferView": 2,
      "byteOffset": 119256,
      "componentType": 5126,
      "count": 246,
      "max": [
        1.0,
        0.0017747716046869755,
        1.0
      ],
      "min": [
        -1.0,
        -0.0017752782441675663,
        -1.0
      ],
      "type": "VEC3"
    },
    {
      "bufferView": 1,
      "byteOffset": 38768,
      "componentType": 5126,
      "count": 246,
      "max": [
        0.7124999761581421,
        1.0
      ],
      "min": [
        0.125,
        0.0
      ],
      "type": "VEC2"
    },
    {
      "bufferView": 0,
      "byteOffset": 34560,
      "componentType": 5125,
      "count": 372,
      "type": "SCALAR"
    },
    {
      "bufferView": 2,
      "byteOffset": 122208,
      "componentType": 5126,
      "count": 192,
      "max": [
        0.40366044640541077,
        0.1337849348783493,
        -0.4294228255748749
      ],
      "min": [
        0.2182234674692154,
        0.04940890148282051,
        -0.9123084545135498
      ],
      "type": "VEC3"
    },
    {
      "bufferView": 2,
      "byteOffset": 124512,
      "componentType": 5126,
      "count": 192,
      "max": [
        1.0,
        1.0,
        1.0
      ],
      "min": [
        -1.0,
        -1.0,
        -1.0
      ],
      "type": "VEC3"
    },
    {
      "bufferView": 1,
      "byteOffset": 40736,
      "componentType": 5126,
      "count": 192,
      "max": [
        0.875,
        1.0
      ],
      "min": [
        0.125,
        0.0
      ],
      "type": "VEC2"
    },
    {
      "bufferView": 0,
      "byteOffset": 36048,
      "componentType": 5125,
      "count": 288,
      "type": "SCALAR"
    },
    {
      "bufferView": 2,
      "byteOffset": 126816,
      "componentType": 5126,
      "count": 36,
      "max": [
        0.6119764447212219,
        0.1256955862045288,
        0.2988370656967163
      ],
      "min": [
        -0.40151530504226685,
        0.061476461589336395,
        -0.8260200023651123
      ],
      "type": "VEC3"
    },
    {
      "bufferView": 2,
      "byteOffset": 127248,
      "componentType": 5126,
      "count": 36,
      "max": [
        0.0,
        1.0,
        -0.0
      ],
      "min": [
        -4.595980129806776e-08,
        -1.0,
        -0.0
      ],
      "type": "VEC3"
    },
    {
      "bufferView": 1,
      "byteOffset": 42272,
      "componentType": 5126,
      "count": 36,
      "max": [
        2.6316752433776855,
        4.83067512512207
      ],
      "min": [
        -2.3243255615234375,
        -3.8306751251220703
      ],
      "type": "VEC2"
    },
    {
      "bufferView": 0,
      "byteOffset": 37200,
      "componentType": 5125,
      "count": 60,
      "type": "SCALAR"
    },
    {
      "bufferView": 2,
      "byteOffset": 127680,
      "componentType": 5126,
      "count": 72,
      "max": [
        0.11076526343822479,
        0.07929510623216629,
        0.5726102590560913
      ],
      "min": [
        -0.3743574619293213,
        0.05536412447690964,
        -0.4008820354938507
      ],
      "type": "VEC3"
    },
    {
      "bufferView": 2,
      "byteOffset": 128544,
      "componentType": 5126,
      "count": 72,
      "max": [
        1.0,
        1.0,
        1.0
      ],
      "min": [
        -1.0,
        -1.0,
        -1.0
      ],
      "type": "VEC3"
    },
    {
      "bufferView": 1,
      "byteOffset": 42560,
      "componentType": 5126,
      "count": 72,
      "max": [
        0.875,
        1.0
      ],
      "min": [
        0.125,
        0.0
      ],
      "type": "VEC2"
    },
    {
      "bufferView": 0,
      "byteOffset": 37440,
      "componentType": 5125,
      "count": 108,
      "type": "SCALAR"
    },
    {
      "bufferView": 2,
      "byteOffset": 129408,
      "componentType": 5126,
      "count": 4,
      "max": [
        0.15146827697753906,
        0.061476461589336395,
        -0.15289849042892456
      ],
      "min": [
        -0.06591308116912842,
        0.061476461589336395,
        -0.20173132419586182
      ],
      "type": "VEC3"
    },
    {
      "bufferView": 2,
      "byteOffset": 129456,
      "componentType": 5126,
      "count": 4,
      "max": [
        0.0,
        1.0,
        -0.0
      ],
      "min": [
        0.0,
        1.0,
        -0.0
      ],
      "type": "VEC3"
    },
    {
      "bufferView": 1,
      "byteOffset": 43136,
      "componentType": 5126,
      "count": 4,
      "max": [
        0.6441083550453186,
        2.678248882293701
      ],
      "min": [
        -0.3674142062664032,
        -1.8363568782806396
      ],
      "type": "VEC2"
    },
    {
      "bufferView": 0,
      "byteOffset": 37872,
      "componentType": 5125,
      "count": 6,
      "type": "SCALAR"
    }
  ],
  "asset": {
    "extras": {
      "author": "Santrix (https://sketchfab.com/TrixtheProtogen)",
      "license": "CC-BY-NC-4.0 (http://creativecommons.org/licenses/by-nc/4.0/)",
      "source": "https://sketchfab.com/3d-models/backrooms-cubes-room-3baef7aace494537bbac98c60bb75e8c",
      "title": "Backrooms Cubes Room"
    },
    "generator": "Sketchfab-15.19.0",
    "version": "2.0"
  },
  "bufferViews": [
    {
      "buffer": 0,
      "byteLength": 37896,
      "name": "floatBufferViews",
      "target": 34963
    },
    {
      "buffer": 0,
      "byteLength": 43168,
      "byteOffset": 37896,
      "byteStride": 8,
      "name": "floatBufferViews",
      "target": 34962
    },
    {
      "buffer": 0,
      "byteLength": 129504,
      "byteOffset": 81064,
      "byteStride": 12,
      "name": "floatBufferViews",
      "target": 34962
    }
  ],
  "buffers": [
    {
      "byteLength": 210568,
      "uri": "scene.bin"
    }
  ],
  "extensionsUsed": [
    "KHR_materials_unlit",
    "KHR_texture_transform",
    "KHR_materials_emissive_strength"
  ],
  "images": [
    {
      "uri": "textures/Wallpaper_1_baseColor.jpeg"
    },
    {
      "uri": "textures/carpet_1_baseColor.jpeg"
    },
    {
      "uri": "textures/ceiling_baseColor.jpeg"
    }
  ],
  "materials": [
    {
      "doubleSided": true,
      "extensions": {
        "KHR_materials_unlit": {}
      },
      "name": "Wallpaper_1",
      "pbrMetallicRoughness": {
        "baseColorTexture": {
          "index": 0
        },
        "metallicFactor": 0.0
      }
    },
    {
      "doubleSided": true,
      "extensions": {
        "KHR_materials_unlit": {}
      },
      "name": "carpet_1",
      "pbrMetallicRoughness": {
        "baseColorTexture": {
          "extensions": {
            "KHR_texture_transform": {
              "offset": [
                0.41742105757994974,
                0
              ],
              "scale": [
                127.99999999999997,
                127.99999999999997
              ]
            }
          },
          "index": 1
        },
        "metallicFactor": 0.0
      }
    },
    {
      "doubleSided": true,
      "extensions": {
        "KHR_materials_unlit": {}
      },
      "name": "floorboard",
      "pbrMetallicRoughness": {
        "baseColorFactor": [
          1.0,
          0.791691,
          0.697068,
          1.0
        ],
        "metallicFactor": 0.0
      }
    },
    {
      "doubleSided": true,
      "emissiveFactor": [
        1.0,
        1.0,
        1.0
      ],
      "extensions": {
        "KHR_materials_emissive_strength": {
          "emissiveStrength": 1.7523862929867975
        },
        "KHR_materials_unlit": {}
      },
      "name": "lights",
      "pbrMetallicRoughness": {
        "metallicFactor": 0.0
      }
    },
    {
      "doubleSided": true,
      "extensions": {
        "KHR_materials_unlit": {}
      },
      "name": "ceiling",
      "pbrMetallicRoughness": {
        "baseColorTexture": {
          "index": 2
        },
        "metallicFactor": 0.0
      }
    },
    {
      "doubleSided": true,
      "emissiveFactor": [
        0.964962,
        1.0,
        0.499912
      ],
      "extensions": {
        "KHR_materials_unlit": {}
      },
      "name": "lights.001",
      "pbrMetallicRoughness": {
        "metallicFactor": 0.0
      }
    },
    {
      "doubleSided": true,
      "extensions": {
        "KHR_materials_unlit": {}
      },
      "name": "ceiling.001",
      "pbrMetallicRoughness": {
        "metallicFactor": 0.0
      }
    }
  ],
  "meshes": [
    {
      "name": "Object_0",
      "primitives": [
        {
          "attributes": {
            "NORMAL": 1,
            "POSITION": 0,
            "TEXCOORD_0": 2
          },
          "indices": 3,
          "material": 0,
          "mode": 4
        }
      ]
    },
    {
      "name": "Object_1",
      "primitives": [
        {
          "attributes": {
            "NORMAL": 5,
            "POSITION": 4,
            "TEXCOORD_0": 6
          },
          "indices": 7,
          "material": 1,
          "mode": 4
        }
      ]
    },
    {
      "name": "Object_2",
      "primitives": [
        {
          "attributes": {
            "NORMAL": 9,
            "POSITION": 8,
            "TEXCOORD_0": 10
          },
          "indices": 11,
          "material": 2,
          "mode": 4
        }
      ]
    },
    {
      "name": "Object_3",
      "primitives": [
        {
          "attributes": {
            "NORMAL": 13,
            "POSITION": 12,
            "TEXCOORD_0": 14
          },
          "indices": 15,
          "material": 3,
          "mode": 4
        }
      ]
    },
    {
      "name": "Object_4",
      "primitives": [
        {
          "attributes": {
            "NORMAL": 17,
            "POSITION": 16,
            "TEXCOORD_0": 18
          },
          "indices": 19,
          "material": 4,
          "mode": 4
        }
      ]
    },
    {
      "name": "Object_5",
      "primitives": [
        {
          "attributes": {
            "NORMAL": 21,
            "POSITION": 20,
            "TEXCOORD_0": 22
          },
          "indices": 23,
          "material": 5,
          "mode": 4
        }
      ]
    },
    {
      "name": "Object_6",
      "primitives": [
        {
          "attributes": {
            "NORMAL": 25,
            "POSITION": 24,
            "TEXCOORD_0": 26
          },
          "indices": 27,
          "material": 6,
          "mode": 4
        }
      ]
    },
    {
      "name": "Object_7",
      "primitives": [
        {
          "attributes": {
            "NORMAL": 29,
            "POSITION": 28,
            "TEXCOORD_0": 30
          },
          "indices": 31,
          "material": 0,
          "mode": 4
        }
      ]
    },
    {
      "name": "Object_8",
      "primitives": [
        {
          "attributes": {
            "NORMAL": 33,
            "POSITION": 32,
            "TEXCOORD_0": 34
          },
          "indices": 35,
          "material": 1,
          "mode": 4
        }
      ]
    },
    {
      "name": "Object_9",
      "primitives": [
        {
          "attributes": {
            "NORMAL": 37,
            "POSITION": 36,
            "TEXCOORD_0": 38
          },
          "indices": 39,
          "material": 2,
          "mode": 4
        }
      ]
    },
    {
      "name": "Object_10",
      "primitives": [
        {
          "attributes": {
            "NORMAL": 41,
            "POSITION": 40,
            "TEXCOORD_0": 42
          },
          "indices": 43,
          "material": 3,
          "mode": 4
        }
      ]
    },
    {
      "name": "Object_11",
      "primitives": [
        {
          "attributes": {
            "NORMAL": 45,
            "POSITION": 44,
            "TEXCOORD_0": 46
          },
          "indices": 47,
          "material": 4,
          "mode": 4
        }
      ]
    },
    {
      "name": "Object_12",
      "primitives": [
        {
          "attributes": {
            "NORMAL": 49,
            "POSITION": 48,
            "TEXCOORD_0": 50
          },
          "indices": 51,
          "material": 5,
          "mode": 4
        }
      ]
    },
    {
      "name": "Object_13",
      "primitives": [
        {
          "attributes": {
            "NORMAL": 53,
            "POSITION": 52,
            "TEXCOORD_0": 54
          },
          "indices": 55,
          "material": 6,
          "mode": 4
        }
      ]
    }
  ],
  "nodes": [
    {
      "children": [
        1
      ],
      "matrix": [
        0.30035850405693054,
        0.0,
        0.0,
        0.0,
        0.0,
        6.669298536919456e-17,
        -0.30035850405693054,
        0.0,
        0.0,
        0.30035850405693054,
        6.669298536919456e-17,
        0.0,
        0.0,
        0.0,
        0.0,
        1.0
      ],
      "name": "Sketchfab_model"
    },
    {
      "children": [
        2
      ],
      "name": "root"
    },
    {
      "children": [
        3,
        11
      ],
      "matrix": [
        1.0,
        0.0,
        0.0,
        0.0,
        0.0,
        2.220446049250313e-16,
        1.0,
        0.0,
        0.0,
        -1.0,
        2.220446049250313e-16,
        0.0,
        0.0,
        0.0,
        0.0,
        1.0
      ],
      "name": "GLTF_SceneRootNode"
    },
    {
      "children": [
        4,
        5,
        6,
        7,
        8,
        9,
        10
      ],
      "matrix": [
        160.0,
        0.0,
        0.0,
        0.0,
        0.0,
        160.0,
        0.0,
        0.0,
        0.0,
        0.0,
        160.0,
        0.0,
        0.0,
        0.0,
        0.0,
        1.0
      ],
      "name": "backrooms_0"
    },
    {
      "mesh": 0,
      "name": "Object_4"
    },
    {
      "mesh": 1,
      "name": "Object_5"
    },
    {
      "mesh": 2,
      "name": "Object_6"
    },
    {
      "mesh": 3,
      "name": "Object_7"
    },
    {
      "mesh": 4,
      "name": "Object_8"
    },
    {
      "mesh": 5,
      "name": "Object_9"
    },
    {
      "mesh": 6,
      "name": "Object_10"
    },
    {
      "children": [
        12,
        13,
        14,
        15,
        16,
        17,
        18
      ],
      "matrix": [
        160.0,
        0.0,
        0.0,
        0.0,
        0.0,
        160.0,
        0.0,
        0.0,
        0.0,
        0.0,
        160.0,
        0.0,
        0.0,
        0.0,
        0.0,
        1.0
      ],
      "name": "backrooms.001_2"
    },
    {
      "mesh": 7,
      "name": "Object_12"
    },
    {
      "mesh": 8,
      "name": "Object_13"
    },
    {
      "mesh": 9,
      "name": "Object_14"
    },
    {
      "mesh": 10,
      "name": "Object_15"
    },
    {
      "mesh": 11,
      "name": "Object_16"
    },
    {
      "mesh": 12,
      "name": "Object_17"
    },
    {
      "mesh": 13,
      "name": "Object_18"
    }
  ],
  "samplers": [
    {
      "magFilter": 9729,
      "minFilter": 9987,
      "wrapS": 10497,
      "wrapT": 10497
    }
  ],
  "scene": 0,
  "scenes": [
    {
      "name": "Sketchfab_Scene",
      "nodes": [
        0
      ]
    }
  ],
  "textures": [
    {
      "sampler": 0,
      "source": 0
    },
    {
      "sampler": 0,
      "source": 1
    },
    {
      "sampler": 0,
      "source": 2
    }
  ]
}
