{
  "accessors": [
    {
      "bufferView": 2,
      "componentType": 5126,
      "count": 754,
      "max": [
        11.613718032836914,
        0.02705834060907364,
        4.998722553253174
      ],
      "min": [
        -6.590912818908691,
        -0.012599281966686249,
        -5.909574508666992
      ],
      "type": "VEC3"
    },
    {
      "bufferView": 2,
      "byteOffset": 9048,
      "componentType": 5126,
      "count": 754,
      "max": [
        1.0,
        -0.0,
        1.0
      ],
      "min": [
        -1.0,
        -1.0,
        -1.0
      ],
      "type": "VEC3"
    },
    {
      "bufferView": 1,
      "componentType": 5126,
      "count": 754,
      "max": [
        0.9703712463378906,
        1.0
      ],
      "min": [
        0.0,
        0.0
      ],
      "type": "VEC2"
    },
    {
      "bufferView": 0,
      "componentType": 5125,
      "count": 1272,
      "type": "SCALAR"
    },
    {
      "bufferView": 2,
      "byteOffset": 18096,
      "componentType": 5126,
      "count": 1634,
      "max": [
        0.16845659911632538,
        0.8561521768569946,
        1.8250925540924072
      ],
      "min": [
        -4.006551265716553,
        -1.4280686378479004,
        -6.295156478881836
      ],
      "type": "VEC3"
    },
    {
      "bufferView": 2,
      "byteOffset": 37704,
      "componentType": 5126,
      "count": 1634,
      "max": [
        1.0,
        1.0,
        1.0
      ],
      "min": [
        -1.0,
        -1.0,
        -1.0
      ],
      "type": "VEC3"
    },
    {
      "bufferView": 1,
      "byteOffset": 6032,
      "componentType": 5126,
      "count": 1634,
      "max": [
        1.0000383853912354,
        0.8589944243431091
      ],
      "min": [
        0.0,
        0.0
      ],
      "type": "VEC2"
    },
    {
      "bufferView": 0,
      "byteOffset": 5088,
      "componentType": 5125,
      "count": 2787,
      "type": "SCALAR"
    },
    {
      "bufferView": 2,
      "byteOffset": 57312,
      "componentType": 5126,
      "count": 64,
      "max": [
        4.256847381591797,
        -1.0724841356277466,
        7.6730241775512695
      ],
      "min": [
        4.1937761306762695,
        -1.1629043817520142,
        7.667306900024414
      ],
      "type": "VEC3"
    },
    {
      "bufferView": 2,
      "byteOffset": 58080,
      "componentType": 5126,
      "count": 64,
      "max": [
        0.7071068286895752,
        0.7071068286895752,
        1.0
      ],
      "min": [
        -0.7071068286895752,
        -0.7071068286895752,
        -1.0
      ],
      "type": "VEC3"
    },
    {
      "bufferView": 1,
      "byteOffset": 19104,
      "componentType": 5126,
      "count": 64,
      "max": [
        0.621891438961029,
        0.8423316478729248
      ],
      "min": [
        0.31802624464035034,
        0.22042663395404816
      ],
      "type": "VEC2"
    },
    {
      "bufferView": 0,
      "byteOffset": 16236,
      "componentType": 5125,
      "count": 84,
      "type": "SCALAR"
    },
    {
      "bufferView": 2,
      "byteOffset": 58848,
      "componentType": 5126,
      "count": 4048,
      "max": [
        12.946670532226563,
        0.8711254596710205,
        10.547818183898926
      ],
      "min": [
        -7.256662845611572,
        -1.229174017906189,
        -9.698708534240723
      ],
      "type": "VEC3"
    },
    {
      "bufferView": 2,
      "byteOffset": 107424,
      "componentType": 5126,
      "count": 4048,
      "max": [
        1.0,
        1.0,
        1.0
      ],
      "min": [
        -1.0,
        -1.0,
        -1.0
      ],
      "type": "VEC3"
    },
    {
      "bufferView": 1,
      "byteOffset": 19616,
      "componentType": 5126,
      "count": 4048,
      "max": [
        0.7364856004714966,
        0.9781391620635986
      ],
      "min": [
        0.28650516271591187,
        0.06392015516757965
      ],
      "type": "VEC2"
    },
    {
      "bufferView": 0,
      "byteOffset": 16572,
      "componentType": 5125,
      "count": 5916,
      "type": "SCALAR"
    },
    {
      "bufferView": 2,
      "byteOffset": 156000,
      "componentType": 5126,
      "count": 398,
      "max": [
        12.73758316040039,
        0.8561521768569946,
        10.49219799041748
      ],
      "min": [
        -7.308994770050049,
        -1.4184658527374268,
        -9.707847595214844
      ],
      "type": "VEC3"
    },
    {
      "bufferView": 2,
      "byteOffset": 160776,
      "componentType": 5126,
      "count": 398,
      "max": [
        1.0,
        0.0,
        1.0
      ],
      "min": [
        -1.0,
        -3.00419242163074e-14,
        -1.0
      ],
      "type": "VEC3"
    },
    {
      "bufferView": 1,
      "byteOffset": 52000,
      "componentType": 5126,
      "count": 398,
      "max": [
        0.9844515919685364,
        0.9879924654960632
      ],
      "min": [
        0.006951063871383667,
        0.009285451844334602
      ],
      "type": "VEC2"
    },
    {
      "bufferView": 0,
      "byteOffset": 40236,
      "componentType": 5125,
      "count": 606,
      "type": "SCALAR"
    },
    {
      "bufferView": 2,
      "byteOffset": 165552,
      "componentType": 5126,
      "count": 68,
      "max": [
        12.73758316040039,
        0.7780836820602417,
        10.489334106445313
      ],
      "min": [
        -7.2467427253723145,
        -1.4184658527374268,
        -9.68879222869873
      ],
      "type": "VEC3"
    },
    {
      "bufferView": 2,
      "byteOffset": 166368,
      "componentType": 5126,
      "count": 68,
      "max": [
        1.0,
        0.0,
        1.0
      ],
      "min": [
        -2.331090911411593e-07,
        -3.1353940982154632e-15,
        -1.0
      ],
      "type": "VEC3"
    },
    {
      "bufferView": 1,
      "byteOffset": 55184,
      "componentType": 5126,
      "count": 68,
      "max": [
        0.9810484647750854,
        0.8784172534942627
      ],
      "min": [
        0.37170425057411194,
        0.05468238517642021
      ],
      "type": "VEC2"
    },
    {
      "bufferView": 0,
      "byteOffset": 42660,
      "componentType": 5125,
      "count": 102,
      "type": "SCALAR"
    },
    {
      "bufferView": 2,
      "byteOffset": 167184,
      "componentType": 5126,
      "count": 44,
      "max": [
        2.4527173042297363,
        0.7543239593505859,
        7.664839744567871
      ],
      "min": [
        -5.103200912475586,
        -1.4184658527374268,
        7.580935001373291
      ],
      "type": "VEC3"
    },
    {
      "bufferView": 2,
      "byteOffset": 167712,
      "componentType": 5126,
      "count": 44,
      "max": [
        1.0,
        0.0,
        1.0
      ],
      "min": [
        -1.0,
        0.0,
        -1.0
      ],
      "type": "VEC3"
    },
    {
      "bufferView": 1,
      "byteOffset": 55728,
      "componentType": 5126,
      "count": 44,
      "max": [
        0.9907213449478149,
        0.7842994928359985
      ],
      "min": [
        0.7249903082847595,
        0.007333280052989721
      ],
      "type": "VEC2"
    },
    {
      "bufferView": 0,
      "byteOffset": 43068,
      "componentType": 5125,
      "count": 66,
      "type": "SCALAR"
    },
    {
      "bufferView": 2,
      "byteOffset": 168240,
      "componentType": 5126,
      "count": 4,
      "max": [
        10.231318473815918,
        0.0,
        16.30222511291504
      ],
      "min": [
        -10.31591796875,
        0.0,
        -5.243105411529541
      ],
      "type": "VEC3"
    },
    {
      "bufferView": 2,
      "byteOffset": 168288,
      "componentType": 5126,
      "count": 4,
      "max": [
        0.0,
        1.0,
        -0.0
      ],
      "min": [
        0.0,
        1.0,
        -0.0
      ],
      "type": "VEC3"
    },
    {
      "bufferView": 1,
      "byteOffset": 56080,
      "componentType": 5126,
      "count": 4,
      "max": [
        0.95367431640625,
        1.0
      ],
      "min": [
        0.0,
        0.0
      ],
      "type": "VEC2"
    },
    {
      "bufferView": 0,
      "byteOffset": 43332,
      "componentType": 5125,
      "count": 6,
      "type": "SCALAR"
    },
    {
      "bufferView": 2,
      "byteOffset": 168336,
      "componentType": 5126,
      "count": 17208,
      "max": [
        15.044366836547852,
        0.029959170147776604,
        9.57909107208252
      ],
      "min": [
        -6.840950012207031,
        0.015000374987721443,
        -12.306225776672363
      ],
      "type": "VEC3"
    },
    {
      "bufferView": 2,
      "byteOffset": 374832,
      "componentType": 5126,
      "count": 17208,
      "max": [
        0.7071391344070435,
        0.7071646451950073,
        0.7071391344070435
      ],
      "min": [
        -0.7071391344070435,
        -0.7071646451950073,
        -0.7071391344070435
      ],
      "type": "VEC3"
    },
    {
      "bufferView": 1,
      "byteOffset": 56112,
      "componentType": 5126,
      "count": 17208,
      "max": [
        1.0,
        1.0
      ],
      "min": [
        0.0,
        0.0
      ],
      "type": "VEC2"
    },
    {
      "bufferView": 0,
      "byteOffset": 43356,
      "componentType": 5125,
      "count": 27648,
      "type": "SCALAR"
    },
    {
      "bufferView": 2,
      "byteOffset": 581328,
      "componentType": 5126,
      "count": 100,
      "max": [
        11.396814346313477,
        0.022479772567749023,
        5.9315385818481445
      ],
      "min": [
        -5.9290618896484375,
        0.022479772567749023,
        -6.834896087646484
      ],
      "type": "VEC3"
    },
    {
      "bufferView": 2,
      "byteOffset": 582528,
      "componentType": 5126,
      "count": 100,
      "max": [
        -0.0,
        -1.0,
        -0.0
      ],
      "min": [
        -0.0,
        -1.0,
        -0.0
      ],
      "type": "VEC3"
    },
    {
      "bufferView": 1,
      "byteOffset": 193776,
      "componentType": 5126,
      "count": 100,
      "max": [
        0.0,
        0.0
      ],
      "min": [
        0.0,
        0.0
      ],
      "type": "VEC2"
    },
    {
      "bufferView": 0,
      "byteOffset": 153948,
      "componentType": 5125,
      "count": 150,
      "type": "SCALAR"
    },
    {
      "bufferView": 2,
      "byteOffset": 583728,
      "componentType": 5126,
      "count": 676,
      "max": [
        15.044366836547852,
        0.022479772567749023,
        9.57909107208252
      ],
      "min": [
        -6.840950012207031,
        0.022479772567749023,
        -12.306225776672363
      ],
      "type": "VEC3"
    },
    {
      "bufferView": 2,
      "byteOffset": 591840,
      "componentType": 5126,
      "count": 676,
      "max": [
        -0.0,
        -1.0,
        -0.0
      ],
      "min": [
        -0.0,
        -1.0,
        -0.0
      ],
      "type": "VEC3"
    },
    {
      "bufferView": 1,
      "byteOffset": 194576,
      "componentType": 5126,
      "count": 676,
      "max": [
        1.0,
        1.0
      ],
      "min": [
        0.0,
        0.0
      ],
      "type": "VEC2"
    },
    {
      "bufferView": 0,
      "byteOffset": 154548,
      "componentType": 5125,
      "count": 3306,
      "type": "SCALAR"
    }
  ],
  "asset": {
    "extras": {
      "author": "Huuxloc (https://sketchfab.com/rjh41)",
      "license": "CC-BY-4.0 (http://creativecommons.org/licenses/by/4.0/)",
      "source": "https://sketchfab.com/3d-models/original-backrooms-e5c6b30995ff442d9852a1dd697aaef1",
      "title": "Original Backrooms"
    },
    "generator": "Sketchfab-13.12.0",
    "version": "2.0"
  },
  "bufferViews": [
    {
      "buffer": 0,
      "byteLength": 167772,
      "name": "floatBufferViews",
      "target": 34963
    },
    {
      "buffer": 0,
      "byteLength": 199984,
      "byteOffset": 167772,
      "byteStride": 8,
      "name": "floatBufferViews",
      "target": 34962
    },
    {
      "buffer": 0,
      "byteLength": 599952,
      "byteOffset": 367756,
      "byteStride": 12,
      "name": "floatBufferViews",
      "target": 34962
    }
  ],
  "buffers": [
    {
      "byteLength": 967708,
      "uri": "scene.bin"
    }
  ],
  "extensionsUsed": [
    "KHR_materials_unlit"
  ],
  "images": [
    {
      "uri": "textures/Vent_baseColor.png"
    },
    {
      "uri": "textures/Piece1_baseColor.png"
    },
    {
      "uri": "textures/PlugSocket_baseColor.png"
    },
    {
      "uri": "textures/NewCarpet_baseColor.png"
    },
    {
      "uri": "textures/CeilingTile_baseColor.png"
    }
  ],
  "materials": [
    {
      "doubleSided": true,
      "emissiveFactor": [
        1.0,
        1.0,
        1.0
      ],
      "emissiveTexture": {
        "index": 0
      },
      "extensions": {
        "KHR_materials_unlit": {}
      },
      "name": "Vent",
      "pbrMetallicRoughness": {
        "baseColorTexture": {
          "index": 0
        },
        "metallicFactor": 0.0
      }
    },
    {
      "doubleSided": true,
      "extensions": {
        "KHR_materials_unlit": {}
      },
      "name": "Piece1",
      "pbrMetallicRoughness": {
        "baseColorTexture": {
          "index": 1
        },
        "metallicFactor": 0.0
      }
    },
    {
      "doubleSided": true,
      "emissiveFactor": [
        1.0,
        1.0,
        1.0
      ],
      "emissiveTexture": {
        "index": 2
      },
      "extensions": {
        "KHR_materials_unlit": {}
      },
      "name": "PlugSocket",
      "pbrMetallicRoughness": {
        "baseColorTexture": {
          "index": 2
        },
        "metallicFactor": 0.0
      }
    },
    {
      "doubleSided": true,
      "emissiveFactor": [
        1.0,
        1.0,
        1.0
      ],
      "emissiveTexture": {
        "index": 2
      },
      "extensions": {
        "KHR_materials_unlit": {}
      },
      "name": "GreenSkirting",
      "pbrMetallicRoughness": {
        "baseColorTexture": {
          "index": 2
        },
        "metallicFactor": 0.0
      }
    },
    {
      "doubleSided": true,
      "emissiveFactor": [
        1.0,
        1.0,
        1.0
      ],
      "emissiveTexture": {
        "index": 2
      },
      "extensions": {
        "KHR_materials_unlit": {}
      },
      "name": "BR_2",
      "pbrMetallicRoughness": {
        "baseColorTexture": {
          "index": 2
        },
        "metallicFactor": 0.0
      }
    },
    {
      "doubleSided": true,
      "emissiveFactor": [
        1.0,
        1.0,
        1.0
      ],
      "emissiveTexture": {
        "index": 2
      },
      "extensions": {
        "KHR_materials_unlit": {}
      },
      "name": "StripeWallpaper",
      "pbrMetallicRoughness": {
        "baseColorTexture": {
          "index": 2
        },
        "metallicFactor": 0.0
      }
    },
    {
      "doubleSided": true,
      "emissiveFactor": [
        1.0,
        1.0,
        1.0
      ],
      "emissiveTexture": {
        "index": 2
      },
      "extensions": {
        "KHR_materials_unlit": {}
      },
      "name": "Dot_Wallpaper",
      "pbrMetallicRoughness": {
        "baseColorTexture": {
          "index": 2
        },
        "metallicFactor": 0.0
      }
    },
    {
      "doubleSided": true,
      "emissiveFactor": [
        1.0,
        1.0,
        1.0
      ],
      "emissiveTexture": {
        "index": 3
      },
      "extensions": {
        "KHR_materials_unlit": {}
      },
      "name": "NewCarpet",
      "pbrMetallicRoughness": {
        "baseColorTexture": {
          "index": 3
        },
        "metallicFactor": 0.0
      }
    },
    {
      "doubleSided": true,
      "extensions": {
        "KHR_materials_unlit": {}
      },
      "name": "Ceiling_Grid",
      "pbrMetallicRoughness": {
        "baseColorFactor": [
          0.20594136762876553,
          0.18553880118454746,
          0.022722356021143916,
          1.0
        ],
        "metallicFactor": 0.0
      }
    },
    {
      "doubleSided": true,
      "emissiveFactor": [
        1.0,
        0.832724,
        0.258994
      ],
      "extensions": {
        "KHR_materials_unlit": {}
      },
      "name": "Ceiling_Lights",
      "pbrMetallicRoughness": {
        "metallicFactor": 0.0
      }
    },
    {
      "doubleSided": true,
      "emissiveFactor": [
        1.0,
        1.0,
        1.0
      ],
      "emissiveTexture": {
        "index": 4
      },
      "extensions": {
        "KHR_materials_unlit": {}
      },
      "name": "CeilingTile",
      "pbrMetallicRoughness": {
        "baseColorTexture": {
          "index": 4
        },
        "metallicFactor": 0.0
      }
    }
  ],
  "meshes": [
    {
      "name": "Object_0",
      "primitives": [
        {
          "attributes": {
            "NORMAL": 1,
            "POSITION": 0,
            "TEXCOORD_0": 2
          },
          "indices": 3,
          "material": 0,
          "mode": 4
        }
      ]
    },
    {
      "name": "Object_1",
      "primitives": [
        {
          "attributes": {
            "NORMAL": 5,
            "POSITION": 4,
            "TEXCOORD_0": 6
          },
          "indices": 7,
          "material": 1,
          "mode": 4
        }
      ]
    },
    {
      "name": "Object_2",
      "primitives": [
        {
          "attributes": {
            "NORMAL": 9,
            "POSITION": 8,
            "TEXCOORD_0": 10
          },
          "indices": 11,
          "material": 2,
          "mode": 4
        }
      ]
    },
    {
      "name": "Object_3",
      "primitives": [
        {
          "attributes": {
            "NORMAL": 13,
            "POSITION": 12,
            "TEXCOORD_0": 14
          },
          "indices": 15,
          "material": 3,
          "mode": 4
        }
      ]
    },
    {
      "name": "Object_4",
      "primitives": [
        {
          "attributes": {
            "NORMAL": 17,
            "POSITION": 16,
            "TEXCOORD_0": 18
          },
          "indices": 19,
          "material": 4,
          "mode": 4
        }
      ]
    },
    {
      "name": "Object_5",
      "primitives": [
        {
          "attributes": {
            "NORMAL": 21,
            "POSITION": 20,
            "TEXCOORD_0": 22
          },
          "indices": 23,
          "material": 5,
          "mode": 4
        }
      ]
    },
    {
      "name": "Object_6",
      "primitives": [
        {
          "attributes": {
            "NORMAL": 25,
            "POSITION": 24,
            "TEXCOORD_0": 26
          },
          "indices": 27,
          "material": 6,
          "mode": 4
        }
      ]
    },
    {
      "name": "Object_7",
      "primitives": [
        {
          "attributes": {
            "NORMAL": 29,
            "POSITION": 28,
            "TEXCOORD_0": 30
          },
          "indices": 31,
          "material": 7,
          "mode": 4
        }
      ]
    },
    {
      "name": "Object_8",
      "primitives": [
        {
          "attributes": {
            "NORMAL": 33,
            "POSITION": 32,
            "TEXCOORD_0": 34
          },
          "indices": 35,
          "material": 8,
          "mode": 4
        }
      ]
    },
    {
      "name": "Object_9",
      "primitives": [
        {
          "attributes": {
            "NORMAL": 37,
            "POSITION": 36,
            "TEXCOORD_0": 38
          },
          "indices": 39,
          "material": 9,
          "mode": 4
        }
      ]
    },
    {
      "name": "Object_10",
      "primitives": [
        {
          "attributes": {
            "NORMAL": 41,
            "POSITION": 40,
            "TEXCOORD_0": 42
          },
          "indices": 43,
          "material": 10,
          "mode": 4
        }
      ]
    }
  ],
  "nodes": [
    {
      "children": [
        1
      ],
      "matrix": [
        1.25,
        0.0,
        0.0,
        0.0,
        0.0,
        2.7755575615628914e-16,
        -1.25,
        0.0,
        0.0,
        1.25,
        2.7755575615628914e-16,
        0.0,
        0.0,
        0.0,
        0.0,
        1.0
      ],
      "name": "Sketchfab_model"
    },
    {
      "children": [
        2
      ],
      "name": "root"
    },
    {
      "children": [
        3,
        5,
        7,
        13,
        15,
        18
      ],
      "matrix": [
        1.0,
        0.0,
        0.0,
        0.0,
        0.0,
        2.220446049250313e-16,
        1.0,
        0.0,
        0.0,
        -1.0,
        2.220446049250313e-16,
        0.0,
        0.0,
        0.0,
        0.0,
        1.0
      ],
      "name": "GLTF_SceneRootNode"
    },
    {
      "children": [
        4
      ],
      "matrix": [
        1.0,
        0.0,
        0.0,
        0.0,
        0.0,
        1.0,
        0.0,
        0.0,
        0.0,
        0.0,
        1.0,
        0.0,
        -2.246084213256836,
        2.1501004695892334,
        -1.3318250179290771,
        1.0
      ],
      "name": "Vents_1"
    },
    {
      "mesh": 0,
      "name": "Object_4"
    },
    {
      "children": [
        6
      ],
      "matrix": [
        -0.999999999999841,
        0.0,
        -5.642599489874107e-07,
        0.0,
        0.0,
        1.0,
        0.0,
        0.0,
        5.642599489874107e-07,
        0.0,
        -0.999999999999841,
        0.0,
        -5.460793495178223,
        1.4157966375350952,
        5.698619842529297,
        1.0
      ],
      "name": "Piece1_2"
    },
    {
      "mesh": 1,
      "name": "Object_6"
    },
    {
      "children": [
        8,
        9,
        10,
        11,
        12
      ],
      "matrix": [
        -2.528810847390872e-07,
        0.0,
        0.999999999999968,
        0.0,
        0.0,
        1.0,
        0.0,
        0.0,
        -0.999999999999968,
        0.0,
        -2.528810847390872e-07,
        0.0,
        0.5001115798950195,
        1.4157966375350952,
        -2.7388386726379395,
        1.0
      ],
      "name": "BackWall_Double_BR.028_3"
    },
    {
      "mesh": 2,
      "name": "Object_8"
    },
    {
      "mesh": 3,
      "name": "Object_9"
    },
    {
      "mesh": 4,
      "name": "Object_10"
    },
    {
      "mesh": 5,
      "name": "Object_11"
    },
    {
      "mesh": 6,
      "name": "Object_12"
    },
    {
      "children": [
        14
      ],
      "matrix": [
        1.0,
        0.0,
        0.0,
        0.0,
        0.0,
        1.0,
        0.0,
        0.0,
        0.0,
        0.0,
        1.0,
        0.0,
        0.01593044400215149,
        0.006468653678894043,
        -5.539406776428223,
        1.0
      ],
      "name": "Carpet_v1.001_4"
    },
    {
      "mesh": 7,
      "name": "Object_14"
    },
    {
      "children": [
        16,
        17
      ],
      "matrix": [
        1.0,
        0.0,
        0.0,
        0.0,
        0.0,
        1.0,
        0.0,
        0.0,
        0.0,
        0.0,
        1.0,
        0.0,
        -3.841975212097168,
        2.1432878971099854,
        1.4004089832305908,
        1.0
      ],
      "name": "Air_Vent.005_5"
    },
    {
      "mesh": 8,
      "name": "Object_16"
    },
    {
      "mesh": 9,
      "name": "Object_17"
    },
    {
      "children": [
        19
      ],
      "matrix": [
        1.0,
        0.0,
        0.0,
        0.0,
        0.0,
        1.0,
        0.0,
        0.0,
        0.0,
        0.0,
        1.0,
        0.0,
        -3.841975212097168,
        2.1432878971099854,
        1.4004089832305908,
        1.0
      ],
      "name": "Ceiling_6"
    },
    {
      "mesh": 10,
      "name": "Object_19"
    }
  ],
  "samplers": [
    {
      "magFilter": 9729,
      "minFilter": 9987,
      "wrapS": 10497,
      "wrapT": 10497
    }
  ],
  "scene": 0,
  "scenes": [
    {
      "name": "Sketchfab_Scene",
      "nodes": [
        0
      ]
    }
  ],
  "textures": [
    {
      "sampler": 0,
      "source": 0
    },
    {
      "sampler": 0,
      "source": 1
    },
    {
      "sampler": 0,
      "source": 2
    },
    {
      "sampler": 0,
      "source": 3
    },
    {
      "sampler": 0,
      "source": 4
    }
  ]
}
