{
  "accessors": [
    {
      "bufferView": 2,
      "componentType": 5126,
      "count": 4244,
      "max": [
        0.6170594096183777,
        0.23089586198329926,
        2.1709303855895996
      ],
      "min": [
        -0.6170594096183777,
        -0.20362485945224762,
        0.004315733909606934
      ],
      "type": "VEC3"
    },
    {
      "bufferView": 2,
      "byteOffset": 50928,
      "componentType": 5126,
      "count": 4244,
      "max": [
        0.9998366832733154,
        0.9998859167098999,
        0.9952497482299805
      ],
      "min": [
        -0.9998366832733154,
        -0.9999753832817078,
        -0.9998466968536377
      ],
      "type": "VEC3"
    },
    {
      "bufferView": 3,
      "componentType": 5126,
      "count": 4244,
      "max": [
        1.0,
        0.9998854398727417,
        0.9998124241828918,
        1.0
      ],
      "min": [
        -1.0,
        -0.9994252920150757,
        -0.9998027682304382,
        -1.0
      ],
      "type": "VEC4"
    },
    {
      "bufferView": 1,
      "componentType": 5126,
      "count": 4244,
      "max": [
        0.982353925704956,
        0.9817335605621338
      ],
      "min": [
        0.01743278093636036,
        0.011968038976192474
      ],
      "type": "VEC2"
    },
    {
      "bufferView": 0,
      "componentType": 5125,
      "count": 20274,
      "type": "SCALAR"
    },
    {
      "bufferView": 2,
      "byteOffset": 101856,
      "componentType": 5126,
      "count": 367,
      "max": [
        1.839815616607666,
        1.732048511505127,
        13.436397552490234
      ],
      "min": [
        -1.6242855787277222,
        -1.7320524454116821,
        0.06007517874240875
      ],
      "type": "VEC3"
    },
    {
      "bufferView": 2,
      "byteOffset": 106260,
      "componentType": 5126,
      "count": 367,
      "max": [
        1.0,
        1.0,
        1.0
      ],
      "min": [
        -1.0,
        -1.0,
        -1.0
      ],
      "type": "VEC3"
    },
    {
      "bufferView": 3,
      "byteOffset": 67904,
      "componentType": 5126,
      "count": 367,
      "max": [
        0.9999838471412659,
        0.999462366104126,
        0.9995427131652832,
        1.0
      ],
      "min": [
        -0.5558211207389832,
        -0.9996006488800049,
        -0.9147279858589172,
        1.0
      ],
      "type": "VEC4"
    },
    {
      "bufferView": 1,
      "byteOffset": 33952,
      "componentType": 5126,
      "count": 367,
      "max": [
        0.9766698479652405,
        0.9645912647247314
      ],
      "min": [
        0.016876433044672012,
        0.021782994270324707
      ],
      "type": "VEC2"
    },
    {
      "bufferView": 0,
      "byteOffset": 81096,
      "componentType": 5125,
      "count": 1686,
      "type": "SCALAR"
    }
  ],
  "asset": {
    "extras": {
      "author": "FilinMinv (https://sketchfab.com/FilinMinv)",
      "license": "CC-BY-4.0 (http://creativecommons.org/licenses/by/4.0/)",
      "source": "https://sketchfab.com/3d-models/partygoer-from-backrooms-472b932845a447a788712a81305526c6",
      "title": "Partygoer from Backrooms"
    },
    "generator": "Sketchfab-14.18.0",
    "version": "2.0"
  },
  "bufferViews": [
    {
      "buffer": 0,
      "byteLength": 87840,
      "name": "floatBufferViews",
      "target": 34963
    },
    {
      "buffer": 0,
      "byteLength": 36888,
      "byteOffset": 87840,
      "byteStride": 8,
      "name": "floatBufferViews",
      "target": 34962
    },
    {
      "buffer": 0,
      "byteLength": 110664,
      "byteOffset": 124728,
      "byteStride": 12,
      "name": "floatBufferViews",
      "target": 34962
    },
    {
      "buffer": 0,
      "byteLength": 73776,
      "byteOffset": 235392,
      "byteStride": 16,
      "name": "floatBufferViews",
      "target": 34962
    }
  ],
  "buffers": [
    {
      "byteLength": 309168,
      "uri": "scene.bin"
    }
  ],
  "images": [
    {
      "uri": "textures/Partygoer_LP_baseColor.jpeg"
    },
    {
      "uri": "textures/Partygoer_LP_metallicRoughness.png"
    },
    {
      "uri": "textures/Partygoer_LP_normal.png"
    },
    {
      "uri": "textures/Baloon_red_baseColor.jpeg"
    },
    {
      "uri": "textures/Baloon_red_metallicRoughness.png"
    },
    {
      "uri": "textures/Baloon_red_normal.png"
    }
  ],
  "materials": [
    {
      "doubleSided": true,
      "name": "Partygoer_LP",
      "normalTexture": {
        "index": 2
      },
      "occlusionTexture": {
        "index": 1
      },
      "pbrMetallicRoughness": {
        "baseColorTexture": {
          "index": 0
        },
        "metallicRoughnessTexture": {
          "index": 1
        }
      }
    },
    {
      "doubleSided": true,
      "name": "Baloon_red",
      "normalTexture": {
        "index": 5
      },
      "pbrMetallicRoughness": {
        "baseColorTexture": {
          "index": 3
        },
        "metallicRoughnessTexture": {
          "index": 4
        }
      }
    }
  ],
  "meshes": [
    {
      "name": "Partygoer_LP_Partygoer_LP_0",
      "primitives": [
        {
          "attributes": {
            "NORMAL": 1,
            "POSITION": 0,
            "TANGENT": 2,
            "TEXCOORD_0": 3
          },
          "indices": 4,
          "material": 0,
          "mode": 4
        }
      ]
    },
    {
      "name": "Baloon red_Baloon red_0",
      "primitives": [
        {
          "attributes": {
            "NORMAL": 6,
            "POSITION": 5,
            "TANGENT": 7,
            "TEXCOORD_0": 8
          },
          "indices": 9,
          "material": 1,
          "mode": 4
        }
      ]
    }
  ],
  "nodes": [
    {
      "children": [
        1
      ],
      "matrix": [
        1.0,
        0.0,
        0.0,
        0.0,
        0.0,
        2.220446049250313e-16,
        -1.0,
        0.0,
        0.0,
        1.0,
        2.220446049250313e-16,
        0.0,
        0.0,
        0.0,
        0.0,
        1.0
      ],
      "name": "Sketchfab_model"
    },
    {
      "children": [
        2
      ],
      "matrix": [
        0.009999999776482582,
        0.0,
        0.0,
        0.0,
        0.0,
        0.0,
        0.009999999776482582,
        0.0,
        0.0,
        -0.009999999776482582,
        0.0,
        0.0,
        0.0,
        0.0,
        0.0,
        1.0
      ],
      "name": "d2c3e08701c04027ab95f74a9581aa9e.fbx"
    },
    {
      "children": [
        3,
        5
      ],
      "name": "RootNode"
    },
    {
      "children": [
        4
      ],
      "matrix": [
        100.0,
        0.0,
        0.0,
        0.0,
        0.0,
        -1.629206793918314e-05,
        -99.99999999999868,
        0.0,
        0.0,
        99.99999999999868,
        -1.629206793918314e-05,
        0.0,
        0.0,
        0.0,
        0.0,
        1.0
      ],
      "name": "Partygoer_LP"
    },
    {
      "mesh": 0,
      "name": "Partygoer_LP_Partygoer_LP_0"
    },
    {
      "children": [
        6
      ],
      "matrix": [
        8.10132929389582,
        0.15975633665776245,
        1.8548077797618448e-08,
        0.0,
        4.457207811561389e-08,
        -1.3195082246807875e-06,
        -8.102903366088759,
        0.0,
        -0.15975633665775732,
        8.101329293895713,
        -1.3201306768228234e-06,
        0.0,
        64.08502197265625,
        111.87570190429688,
        2.104762077331543,
        1.0
      ],
      "name": "Baloon red"
    },
    {
      "mesh": 1,
      "name": "Baloon red_Baloon red_0"
    }
  ],
  "samplers": [
    {
      "magFilter": 9729,
      "minFilter": 9987,
      "wrapS": 10497,
      "wrapT": 10497
    }
  ],
  "scene": 0,
  "scenes": [
    {
      "name": "Sketchfab_Scene",
      "nodes": [
        0
      ]
    }
  ],
  "textures": [
    {
      "sampler": 0,
      "source": 0
    },
    {
      "sampler": 0,
      "source": 1
    },
    {
      "sampler": 0,
      "source": 2
    },
    {
      "sampler": 0,
      "source": 3
    },
    {
      "sampler": 0,
      "source": 4
    },
    {
      "sampler": 0,
      "source": 5
    }
  ]
}
